<?xml version="1.0" encoding="utf-8"?>
<!-- Generator: Adobe Illustrator 24.2.1, SVG Export Plug-In . SVG Version: 6.00 Build 0)  -->
<svg version="1.1" id="Layer_1" xmlns="http://www.w3.org/2000/svg" xmlns:xlink="http://www.w3.org/1999/xlink" x="0px" y="0px"
	 viewBox="0 0 474.69 62.08" style="enable-background:new 0 0 474.69 62.08;" xml:space="preserve">
<g>
	<path style="fill:#ED1C24;" d="M4.21,0.23h13.07v49.72h29.61v12.13H4.21V0.23z"/>
	<path style="fill:#ED1C24;" d="M110.71,31.62c0,4.79-0.09,9.68-0.47,12.03c-2.07,11.75-11.75,18.42-25.19,18.42h-0.19
		c-13.54-0.09-23.12-6.77-25.19-18.52c-0.38-2.16-0.47-4.51-0.47-6.77V0.33h12.78V35.2c0,3.76,0.19,7.52,2.07,10.15
		c2.16,3.01,5.64,4.7,10.9,4.7s8.83-1.69,10.9-4.79c1.79-2.63,2.07-5.92,2.07-9.4c0-1.41-0.09-2.91-0.09-4.32V0.33h12.88V31.62z"/>
	<path style="fill:#ED1C24;" d="M120.87,0.23h44.55l-0.47,0.09v11.66l-31.02,0.09v14.1h29.33l-0.09,11.94h-29.23v23.97h-13.07V0.23z
		"/>
	<path style="fill:#ED1C24;" d="M177.74,0.23h49.91c0,1.13,0.09,4.42,0.09,7.33c0,2.26,0,4.23-0.09,4.79h-18.42v49.72h-8.46
		c-1.88,0-3.57,0-4.51-0.09l0.09-49.63h-18.8l0.19-0.56V0.23z"/>
	<path style="fill:#ED1C24;" d="M238.08,0.23h13.16v24.81h6.39c0.47,0,1.13-1.13,1.41-1.5l16.82-21.9c0.28-0.47,0.66-1.22,1.22-1.41
		h15.13c-0.47,0.75-0.94,1.32-1.5,1.97l-22.28,28.76c0.47,1.13,23.97,29.61,24.72,31.02c-1.5,0.09-3.38,0.09-5.36,0.09h-9.96
		c-0.85,0-1.13-0.94-1.5-1.41l-16.17-20.58c-0.28-0.38-2.16-2.91-2.63-3.01h-6.3v25h-13.07L238.08,0.23z"/>
	<path style="fill:#ED1C24;" d="M354.73,31.62c0,4.79-0.09,9.68-0.47,12.03c-2.07,11.75-11.75,18.42-25.19,18.42h-0.19
		c-13.54-0.09-23.12-6.77-25.19-18.52c-0.38-2.16-0.47-4.51-0.47-6.77V0.33h12.78V35.2c0,3.76,0.19,7.52,2.07,10.15
		c2.16,3.01,5.64,4.7,10.9,4.7s8.83-1.69,10.9-4.79c1.79-2.63,2.07-5.92,2.07-9.4c0-1.41-0.09-2.91-0.09-4.32V0.33h12.88V31.62z"/>
	<path style="fill:#ED1C24;" d="M390.74,62.08c-6.49,0-13.07-1.69-17.58-4.61c-0.56-0.38-1.03-0.75-1.6-1.13
		c-1.79-1.22-5.73-5.36-6.3-7.52l8.74-6.67c0.38,0.28,0.85,1.22,1.22,1.6c3.1,4.32,9.49,7.14,15.98,7.14c2.35,0,4.61-0.47,6.39-1.32
		c1.88-0.85,3.85-2.73,3.85-5.45c0-0.47,0-1.03-0.19-1.6c-1.97-7.61-21.71-4.7-30.36-14.1c-2.73-2.91-4.14-6.77-4.14-10.62
		c0-12.41,11.84-17.48,22.56-17.48c6.67,0,13.44,1.79,17.95,5.08c1.41,1.03,4.7,4.04,5.26,5.73l-2.16,1.79
		c-0.75,0.56-1.32,1.03-2.16,1.69c-0.75,0.56-3.85,3.01-4.42,3.29c-1.13-1.79-4.14-3.85-6.3-4.79c-2.16-0.94-5.26-1.6-8.37-1.6
		c-4.61,0-9.59,1.32-9.59,6.2c0,0.66,0.09,1.32,0.38,1.88c1.97,4.51,14.47,5.45,20.4,7.43c7.24,2.44,13.82,6.48,13.82,16.26
		C414.14,56.35,402.67,62.08,390.74,62.08z"/>
	<path style="fill:#ED1C24;" d="M451.18,62.08c-6.49,0-13.07-1.69-17.58-4.61c-0.56-0.38-1.03-0.75-1.6-1.13
		c-1.79-1.22-5.73-5.36-6.3-7.52l8.74-6.67c0.38,0.28,0.85,1.22,1.22,1.6c3.1,4.32,9.49,7.14,15.98,7.14c2.35,0,4.61-0.47,6.39-1.32
		c1.88-0.85,3.85-2.73,3.85-5.45c0-0.47,0-1.03-0.19-1.6c-1.97-7.61-21.71-4.7-30.36-14.1c-2.73-2.91-4.14-6.77-4.14-10.62
		c0-12.41,11.84-17.48,22.56-17.48c6.67,0,13.44,1.79,17.95,5.08c1.41,1.03,4.7,4.04,5.26,5.73l-2.16,1.79
		c-0.75,0.56-1.32,1.03-2.16,1.69c-0.75,0.56-3.85,3.01-4.42,3.29c-1.13-1.79-4.13-3.85-6.3-4.79c-2.16-0.94-5.26-1.6-8.37-1.6
		c-4.61,0-9.59,1.32-9.59,6.2c0,0.66,0.09,1.32,0.38,1.88c1.97,4.51,14.48,5.45,20.4,7.43c7.24,2.44,13.82,6.48,13.82,16.26
		C474.58,56.35,463.12,62.08,451.18,62.08z"/>
</g>
<g>
</g>
<g>
	<path style="fill:#FFFFFF;" d="M0,0.23h13.07v49.72h29.61v12.13H0V0.23z"/>
	<path style="fill:#FFFFFF;" d="M106.5,31.62c0,4.79-0.09,9.68-0.47,12.03c-2.07,11.75-11.75,18.42-25.19,18.42h-0.19
		c-13.54-0.09-23.12-6.77-25.19-18.52c-0.38-2.16-0.47-4.51-0.47-6.77V0.33h12.78V35.2c0,3.76,0.19,7.52,2.07,10.15
		c2.16,3.01,5.64,4.7,10.9,4.7s8.83-1.69,10.9-4.79c1.79-2.63,2.07-5.92,2.07-9.4c0-1.41-0.09-2.91-0.09-4.32V0.33h12.88V31.62z"/>
	<path style="fill:#FFFFFF;" d="M116.65,0.23h44.55l-0.47,0.09v11.66l-31.02,0.09v14.1h29.33l-0.09,11.94h-29.23v23.97h-13.07V0.23z
		"/>
	<path style="fill:#FFFFFF;" d="M173.52,0.23h49.91c0,1.13,0.09,4.42,0.09,7.33c0,2.26,0,4.23-0.09,4.79h-18.42v49.72h-8.46
		c-1.88,0-3.57,0-4.51-0.09l0.09-49.63h-18.8l0.19-0.56V0.23z"/>
	<path style="fill:#FFFFFF;" d="M233.87,0.23h13.16v24.81h6.39c0.47,0,1.13-1.13,1.41-1.5l16.83-21.9c0.28-0.47,0.66-1.22,1.22-1.41
		h15.13c-0.47,0.75-0.94,1.32-1.5,1.97l-22.28,28.76c0.47,1.13,23.97,29.61,24.72,31.02c-1.5,0.09-3.38,0.09-5.36,0.09h-9.96
		c-0.85,0-1.13-0.94-1.5-1.41l-16.17-20.58c-0.28-0.38-2.16-2.91-2.63-3.01h-6.3v25h-13.07L233.87,0.23z"/>
	<path style="fill:#FFFFFF;" d="M350.52,31.62c0,4.79-0.09,9.68-0.47,12.03c-2.07,11.75-11.75,18.42-25.19,18.42h-0.19
		c-13.54-0.09-23.12-6.77-25.19-18.52c-0.38-2.16-0.47-4.51-0.47-6.77V0.33h12.78V35.2c0,3.76,0.19,7.52,2.07,10.15
		c2.16,3.01,5.64,4.7,10.9,4.7s8.83-1.69,10.9-4.79c1.79-2.63,2.07-5.92,2.07-9.4c0-1.41-0.09-2.91-0.09-4.32V0.33h12.88V31.62z"/>
	<path style="fill:#FFFFFF;" d="M386.52,62.08c-6.49,0-13.07-1.69-17.58-4.61c-0.56-0.38-1.03-0.75-1.6-1.13
		c-1.79-1.22-5.73-5.36-6.3-7.52l8.74-6.67c0.38,0.28,0.85,1.22,1.22,1.6c3.1,4.32,9.49,7.14,15.98,7.14c2.35,0,4.61-0.47,6.39-1.32
		c1.88-0.85,3.85-2.73,3.85-5.45c0-0.47,0-1.03-0.19-1.6c-1.97-7.61-21.71-4.7-30.36-14.1c-2.73-2.91-4.14-6.77-4.14-10.62
		c0-12.41,11.84-17.48,22.56-17.48c6.67,0,13.44,1.79,17.95,5.08c1.41,1.03,4.7,4.04,5.26,5.73l-2.16,1.79
		c-0.75,0.56-1.32,1.03-2.16,1.69c-0.75,0.56-3.85,3.01-4.42,3.29c-1.13-1.79-4.14-3.85-6.3-4.79c-2.16-0.94-5.26-1.6-8.37-1.6
		c-4.61,0-9.59,1.32-9.59,6.2c0,0.66,0.09,1.32,0.38,1.88c1.97,4.51,14.47,5.45,20.4,7.43c7.24,2.44,13.82,6.49,13.82,16.26
		C409.93,56.35,398.46,62.08,386.52,62.08z"/>
	<path style="fill:#FFFFFF;" d="M446.97,62.08c-6.49,0-13.07-1.69-17.58-4.61c-0.56-0.38-1.03-0.75-1.6-1.13
		c-1.79-1.22-5.73-5.36-6.3-7.52l8.74-6.67c0.38,0.28,0.85,1.22,1.22,1.6c3.1,4.32,9.49,7.14,15.98,7.14c2.35,0,4.61-0.47,6.39-1.32
		c1.88-0.85,3.85-2.73,3.85-5.45c0-0.47,0-1.03-0.19-1.6c-1.97-7.61-21.71-4.7-30.36-14.1c-2.73-2.91-4.14-6.77-4.14-10.62
		c0-12.41,11.84-17.48,22.56-17.48c6.67,0,13.44,1.79,17.95,5.08c1.41,1.03,4.7,4.04,5.26,5.73l-2.16,1.79
		c-0.75,0.56-1.32,1.03-2.16,1.69c-0.75,0.56-3.85,3.01-4.42,3.29c-1.13-1.79-4.13-3.85-6.3-4.79c-2.16-0.94-5.26-1.6-8.37-1.6
		c-4.61,0-9.59,1.32-9.59,6.2c0,0.66,0.09,1.32,0.38,1.88c1.97,4.51,14.48,5.45,20.4,7.43c7.24,2.44,13.82,6.49,13.82,16.26
		C470.37,56.35,458.9,62.08,446.97,62.08z"/>
</g>
<g>
</g>
<g>
</g>
<g>
</g>
<g>
</g>
<g>
</g>
<g>
</g>
</svg>
